 <svg version="1.0" xmlns="http://www.w3.org/2000/svg"
          width="100%" height="100%" viewBox="0 0 300.000000 80.000000"
          preserveAspectRatio="xMidYMid meet">

          <g transform="translate(0.000000,90.000000) scale(0.043000,-0.02500)"
          fill="#000000" stroke="none">
          <path d="M3000 2394 c0 -44 -3 -52 -25 -62 -37 -17 -65 -81 -65 -152 0 -57 -1
          -60 -25 -60 -23 0 -25 -4 -25 -44 0 -26 -6 -48 -15 -56 -19 -16 -19 -41 0 -66
          12 -15 14 -61 15 -236 l0 -218 -50 0 -50 0 0 80 0 79 -45 26 c-26 16 -66 29
          -99 32 -47 5 -64 2 -111 -21 -30 -15 -55 -31 -55 -34 -1 -4 -1 -44 -2 -89 l-1
          -83 -38 0 -39 0 0 101 c0 93 2 103 25 131 14 16 25 38 25 49 0 11 -11 31 -25
          45 -18 18 -25 36 -25 63 0 52 -52 153 -98 190 -21 16 -59 39 -85 52 -39 19
          -47 28 -47 50 0 31 -32 75 -60 84 -14 4 -20 15 -20 36 0 19 -5 29 -15 29 -12
          0 -15 13 -15 58 0 40 -3 53 -10 42 -5 -8 -10 -34 -10 -57 0 -24 -4 -43 -10
          -43 -5 0 -10 -13 -10 -30 0 -19 -5 -30 -14 -30 -27 0 -66 -48 -66 -82 0 -31
          -4 -36 -59 -61 -37 -17 -75 -45 -100 -73 -42 -48 -81 -135 -81 -183 0 -15 -9
          -36 -20 -46 -25 -23 -26 -69 -1 -94 16 -16 20 -37 23 -105 l3 -86 -47 0 -48 0
          -2 193 c-3 191 -3 192 -25 195 -21 3 -23 9 -23 68 0 79 -17 116 -64 138 -31
          15 -39 15 -69 2 -53 -22 -67 -50 -67 -133 0 -71 -1 -73 -25 -73 l-25 0 0 -260
          0 -260 -30 0 -30 0 0 -80 0 -80 -45 0 -45 0 0 460 0 460 -185 0 -185 0 0 -480
          0 -480 -30 0 c-25 0 -30 4 -30 23 0 18 -19 34 -86 75 l-86 53 -147 -142 c-80
          -79 -152 -150 -158 -158 -10 -11 -13 -79 -13 -263 0 -214 2 -248 15 -248 13 0
          15 34 15 248 l0 247 97 95 c54 52 121 116 148 142 l50 47 73 -46 c62 -39 72
          -49 72 -74 0 -28 1 -29 55 -29 l55 0 0 485 0 485 160 0 160 0 0 -460 0 -460
          65 0 65 0 0 75 0 75 30 0 30 0 0 260 0 260 25 0 c25 0 25 1 25 84 0 77 2 85
          26 110 32 31 62 33 97 6 24 -19 26 -28 29 -108 3 -81 4 -87 25 -90 22 -3 23
          -5 25 -195 l3 -192 67 -3 67 -3 3 108 c3 99 1 109 -19 129 -25 25 -21 59 8 75
          14 7 19 21 19 53 0 24 6 59 14 77 8 19 14 38 15 42 1 20 98 98 147 118 50 21
          54 25 54 56 0 36 36 83 65 83 9 0 15 9 15 25 0 14 5 25 10 25 6 0 10 -11 10
          -25 0 -17 5 -25 18 -25 36 0 62 -29 62 -71 0 -38 1 -40 65 -70 105 -49 175
          -149 175 -248 0 -25 6 -40 20 -49 11 -7 20 -23 20 -37 0 -14 -8 -29 -20 -35
          -18 -10 -20 -21 -20 -135 l0 -125 60 0 60 0 0 90 0 90 33 20 c44 27 134 27
          187 0 l39 -20 3 -88 3 -87 73 -3 72 -3 0 241 c0 174 -3 246 -12 260 -10 16
          -10 24 0 40 6 11 12 36 12 55 0 31 3 35 25 35 24 0 25 3 25 59 0 33 5 63 10
          66 6 3 10 17 10 30 0 30 43 65 71 58 35 -10 52 -49 57 -134 4 -75 6 -79 28
          -79 21 0 24 -5 24 -39 0 -22 6 -44 15 -51 19 -16 19 -34 0 -50 -13 -11 -15
          -47 -13 -239 l3 -226 70 0 c69 0 70 0 73 28 3 27 4 27 77 27 l73 0 4 99 c3 90
          5 102 28 127 31 33 79 54 125 54 l35 0 0 90 c0 142 40 210 123 210 82 0 127
          -76 127 -215 l0 -85 33 0 c45 0 98 -29 124 -69 20 -29 23 -47 23 -127 l0 -94
          80 0 80 0 0 -151 0 -150 38 3 37 3 3 57 c3 53 6 60 38 84 19 15 49 30 67 33
          l32 7 3 107 3 107 194 0 195 0 0 -155 0 -155 75 0 75 0 0 460 0 460 35 0 c32
          0 35 -2 35 -30 0 -29 1 -30 50 -30 l50 0 0 60 0 60 35 0 35 0 0 -60 0 -60 45
          0 c41 0 45 2 45 25 0 22 4 25 35 25 l35 0 0 -380 0 -380 165 0 165 0 0 -34 c0
          -30 8 -39 70 -87 l70 -53 0 -63 0 -63 105 0 105 0 0 405 0 405 45 0 45 0 0
          -45 0 -45 65 0 65 0 0 45 0 45 43 0 42 0 0 -327 0 -328 117 -3 117 -3 3 -52 3
          -52 122 -85 122 -85 1 -257 c0 -224 2 -258 15 -258 13 0 15 33 13 262 l-3 262
          -125 89 -125 89 0 57 0 56 -117 3 -118 3 -2 327 -3 327 -65 0 -65 0 -3 -42
          c-3 -43 -3 -43 -42 -43 -39 0 -39 0 -42 43 -2 33 -7 42 -20 41 -10 -1 -38 -2
          -63 -3 l-45 -1 0 -405 0 -405 -80 0 -80 0 0 58 -1 57 -74 58 c-68 52 -75 61
          -75 92 l0 35 -160 0 -160 0 -2 383 -3 382 -55 0 c-49 0 -55 -2 -58 -22 -3 -17
          -10 -23 -28 -23 -22 0 -24 3 -24 55 l0 55 -60 0 -60 0 0 -55 c0 -48 -2 -55
          -20 -55 -15 0 -20 7 -20 25 0 24 -3 25 -60 25 l-60 0 0 -455 0 -455 -55 0 -55
          0 0 155 0 155 -220 0 -220 0 0 -110 0 -110 -37 -15 c-21 -9 -53 -30 -70 -47
          -27 -26 -33 -40 -33 -75 0 -31 -4 -43 -15 -43 -12 0 -15 25 -17 148 l-3 147
          -77 3 -78 3 0 87 c0 76 -3 92 -24 123 -27 39 -79 69 -119 69 -23 0 -24 3 -30
          86 -3 63 -11 97 -29 132 -21 41 -65 83 -100 94 -6 2 -13 40 -16 83 -5 72 -7
          76 -13 40 -4 -22 -8 -58 -8 -80 -1 -36 -5 -42 -38 -60 -69 -37 -103 -111 -103
          -227 l0 -68 -37 0 c-47 0 -97 -30 -123 -72 -16 -26 -20 -51 -20 -120 l0 -88
          -80 0 c-79 0 -80 0 -80 -25 0 -23 -4 -25 -45 -25 l-45 0 0 214 c0 133 4 217
          10 221 6 3 10 19 10 35 0 16 -4 32 -10 35 -5 3 -10 26 -10 51 0 40 -2 44 -25
          44 -24 0 -25 2 -25 65 0 37 -4 65 -10 65 -5 0 -10 8 -10 19 0 18 -45 71 -61
          71 -5 0 -9 17 -9 38 0 20 -5 44 -10 52 -7 11 -10 1 -10 -36z"/>
          </g>
        </svg>
