<?xml version="1.0" encoding="UTF-8" standalone="no"?>
<svg
   width="1500"
   height="250"
   viewBox="0 0 1500 250"
   version="1.1"
   xml:space="preserve"
   style="clip-rule:evenodd;fill-rule:evenodd;stroke-linejoin:round;stroke-miterlimit:2"
   id="svg9679"
   sodipodi:docname="banner_rsbm.svg"
   inkscape:version="1.2.1 (9c6d41e410, 2022-07-14)"
   xmlns:inkscape="http://www.inkscape.org/namespaces/inkscape"
   xmlns:sodipodi="http://sodipodi.sourceforge.net/DTD/sodipodi-0.dtd"
   xmlns="http://www.w3.org/2000/svg"
   xmlns:svg="http://www.w3.org/2000/svg"><defs
   id="defs9683">
        
        
        
        
        
    
            
            
            
            
            
        </defs><sodipodi:namedview
   id="namedview9681"
   pagecolor="#505050"
   bordercolor="#ffffff"
   borderopacity="1"
   inkscape:pageshadow="0"
   inkscape:pageopacity="0"
   inkscape:pagecheckerboard="1"
   showgrid="false"
   inkscape:zoom="0.77508133"
   inkscape:cx="926.3544"
   inkscape:cy="127.08344"
   inkscape:window-width="1276"
   inkscape:window-height="454"
   inkscape:window-x="1280"
   inkscape:window-y="984"
   inkscape:window-maximized="1"
   inkscape:current-layer="svg9679"
   inkscape:showpageshadow="0"
   inkscape:deskcolor="#505050" />
    <rect
   x="0"
   y="0"
   width="1500"
   height="250"
   style="fill:#ffffff;stroke-width:0.589356"
   id="rect9625" /><g
   id="g1616"
   style="clip-rule:evenodd;fill-rule:evenodd;stroke-linejoin:round;stroke-miterlimit:2"
   transform="matrix(2.7308943,0,0,2.7308943,239.53575,59.490749)"><g
     transform="matrix(0.69,0,0,0.69,112.152,-6.0093)"
     id="g4"><path
       d="M 30,10 V 43.333 H 56.667 V 70 H 90 V 10 Z"
       style="fill:#82a9c8;fill-rule:nonzero"
       id="path2" /></g><g
     transform="matrix(0.69,0,0,0.69,112.152,-6.0093)"
     id="g8"><rect
       x="10"
       y="50"
       width="40"
       height="40"
       style="fill:#e89b26"
       id="rect6" /></g></g><g
   transform="matrix(13.166132,0,0,13.166132,-3770.1273,-3395.2542)"
   id="g12"
   style="clip-rule:evenodd;fill-rule:evenodd;stroke-linejoin:round;stroke-miterlimit:2"><g
     aria-label="ABZ"
     id="text10"
     style="font-size:12px;font-family:ArialMT, Arial, sans-serif;word-spacing:0px;fill:#4e7592"><g
       id="g1610"><path
         d="m 311.9689,271.17001 -0.94336,-2.41406 h -3.76172 l -0.94921,2.41406 h -1.16016 l 3.36914,-8.25586 h 1.27148 l 3.31641,8.25586 z m -2.82422,-7.41211 -0.0527,0.16407 q -0.14648,0.48632 -0.43359,1.24804 l -1.05469,2.71289 h 3.08789 l -1.06055,-2.72461 q -0.16406,-0.40429 -0.32812,-0.91406 z"
         style="font-size:12px;font-family:ArialMT, Arial, sans-serif;word-spacing:0px;fill:#4e7592"
         id="path945" /><path
         d="m 320.50601,268.84384 q 0,1.10156 -0.80273,1.7168 -0.80274,0.60937 -2.23242,0.60937 h -3.35157 v -8.25586 h 3 q 2.90625,0 2.90625,2.00391 0,0.73242 -0.41015,1.23047 -0.41016,0.49805 -1.16016,0.66797 0.98438,0.11719 1.51758,0.66211 0.5332,0.53906 0.5332,1.36523 z m -1.60547,-3.79101 q 0,-0.66797 -0.45703,-0.95508 -0.45703,-0.28711 -1.32422,-0.28711 h -1.88086 v 2.61328 h 1.88086 q 0.89649,0 1.33594,-0.33398 0.44531,-0.33985 0.44531,-1.03711 z m 0.47461,3.70312 q 0,-1.45898 -2.05078,-1.45898 h -2.08594 v 2.97656 h 2.17383 q 1.02539,0 1.49414,-0.38086 0.46875,-0.38086 0.46875,-1.13672 z"
         style="font-size:12px;font-family:ArialMT, Arial, sans-serif;word-spacing:0px;fill:#4e7592"
         id="path947" /><path
         d="m 328.0939,271.17001 h -6.57422 v -0.83789 l 5.02735,-6.5039 h -4.59961 v -0.91407 h 5.87109 v 0.81446 l -5.02734,6.52734 h 5.30273 z"
         style="font-size:12px;font-family:ArialMT, Arial, sans-serif;word-spacing:0px;fill:#4e7592"
         id="path949" /></g></g></g>
    <g
   aria-label="Rigorous State Based Methods"
   id="text9667"
   style="font-size:30px;font-family:Raleway-Regular, Raleway, sans-serif;fill:#4e7592"
   transform="matrix(1.3559818,0,0,1.3559818,-292.16814,-76.492151)"><path
     d="m 757.44301,161.38699 v -21.3 h 9 q 1.38,0 2.52,0.57 1.14,0.57 1.98,1.56 0.87,0.96 1.32,2.16 0.48,1.17 0.48,2.4 0,1.53 -0.6,2.88 -0.57,1.35 -1.65,2.28 -1.05,0.93 -2.49,1.23 l 5.22,8.22 h -2.37 l -5.01,-7.86 h -6.3 v 7.86 z m 2.1,-9.72 h 6.96 q 1.26,0 2.19,-0.69 0.93,-0.69 1.44,-1.8 0.51,-1.14 0.51,-2.4 0,-1.29 -0.6,-2.37 -0.57,-1.11 -1.56,-1.77 -0.96,-0.69 -2.16,-0.69 h -6.78 z"
     style="font-size:30px;font-family:Raleway-Regular, Raleway, sans-serif;fill:#4e7592"
     id="path14578" /><path
     d="m 776.46301,161.38699 v -15.63 h 2.04 v 15.63 z m 0,-18.9 v -3 h 2.04 v 3 z"
     id="path14580" /><path
     d="m 789.27297,161.59699 q -1.59,0 -2.94,-0.66 -1.35,-0.66 -2.34,-1.77 -0.96,-1.14 -1.5,-2.58 -0.54,-1.44 -0.54,-2.97 0,-1.65 0.51,-3.09 0.54,-1.47 1.5,-2.61 0.99,-1.14 2.31,-1.77 1.32,-0.66 2.94,-0.66 2.01,0 3.48,1.02 1.5,1.02 2.52,2.52 v -3.27 h 1.83 v 15.69 q 0,2.16 -1.05,3.63 -1.02,1.5 -2.79,2.25 -1.74,0.75 -3.81,0.75 -2.67,0 -4.32,-0.96 -1.65,-0.96 -2.7,-2.58 l 1.26,-0.99 q 0.93,1.47 2.46,2.19 1.56,0.72 3.3,0.72 1.53,0 2.79,-0.57 1.29,-0.54 2.04,-1.65 0.78,-1.11 0.78,-2.79 v -3.09 q -0.9,1.47 -2.46,2.37 -1.56,0.87 -3.27,0.87 z m 0.57,-1.71 q 0.93,0 1.77,-0.33 0.87,-0.33 1.59,-0.87 0.72,-0.57 1.2,-1.26 0.48,-0.69 0.6,-1.41 v -4.83 q -0.45,-1.14 -1.29,-2.01 -0.84,-0.9 -1.92,-1.38 -1.05,-0.51 -2.19,-0.51 -1.32,0 -2.37,0.57 -1.02,0.54 -1.74,1.47 -0.69,0.9 -1.08,2.04 -0.39,1.14 -0.39,2.28 0,1.26 0.45,2.4 0.45,1.11 1.23,2.01 0.81,0.87 1.86,1.35 1.08,0.48 2.28,0.48 z"
     style="font-size:30px;font-family:Raleway-Regular, Raleway, sans-serif;fill:#4e7592"
     id="path14582" /><path
     d="m 808.20291,161.68699 q -1.68,0 -3.12,-0.63 -1.41,-0.66 -2.46,-1.77 -1.02,-1.14 -1.59,-2.58 -0.57,-1.47 -0.57,-3.09 0,-1.68 0.57,-3.12 0.57,-1.47 1.62,-2.58 1.05,-1.14 2.46,-1.77 1.44,-0.66 3.12,-0.66 1.68,0 3.09,0.66 1.41,0.63 2.46,1.77 1.05,1.11 1.62,2.58 0.57,1.44 0.57,3.12 0,1.62 -0.57,3.09 -0.57,1.44 -1.62,2.58 -1.02,1.11 -2.46,1.77 -1.41,0.63 -3.12,0.63 z m -5.67,-8.04 q 0,1.74 0.75,3.18 0.78,1.41 2.07,2.25 1.29,0.81 2.85,0.81 1.56,0 2.85,-0.84 1.29,-0.84 2.07,-2.28 0.78,-1.47 0.78,-3.18 0,-1.74 -0.78,-3.18 -0.78,-1.44 -2.07,-2.28 -1.29,-0.84 -2.85,-0.84 -1.56,0 -2.85,0.87 -1.26,0.87 -2.04,2.31 -0.78,1.41 -0.78,3.18 z"
     style="font-size:30px;font-family:Raleway-Regular, Raleway, sans-serif;fill:#4e7592"
     id="path14584" /><path
     d="m 827.19289,147.55699 q -2.04,0.06 -3.6,1.14 -1.53,1.08 -2.16,2.97 v 9.72 h -2.04 v -15.63 h 1.92 v 3.75 q 0.81,-1.65 2.13,-2.67 1.35,-1.02 2.85,-1.14 0.3,-0.03 0.51,-0.03 0.24,0 0.39,0.03 z"
     style="font-size:30px;font-family:Raleway-Regular, Raleway, sans-serif;fill:#4e7592"
     id="path14586" /><path
     d="m 835.80301,161.68699 q -1.68,0 -3.12,-0.63 -1.41,-0.66 -2.46,-1.77 -1.02,-1.14 -1.59,-2.58 -0.57,-1.47 -0.57,-3.09 0,-1.68 0.57,-3.12 0.57,-1.47 1.62,-2.58 1.05,-1.14 2.46,-1.77 1.44,-0.66 3.12,-0.66 1.68,0 3.09,0.66 1.41,0.63 2.46,1.77 1.05,1.11 1.62,2.58 0.57,1.44 0.57,3.12 0,1.62 -0.57,3.09 -0.57,1.44 -1.62,2.58 -1.02,1.11 -2.46,1.77 -1.41,0.63 -3.12,0.63 z m -5.67,-8.04 q 0,1.74 0.75,3.18 0.78,1.41 2.07,2.25 1.29,0.81 2.85,0.81 1.56,0 2.85,-0.84 1.29,-0.84 2.07,-2.28 0.78,-1.47 0.78,-3.18 0,-1.74 -0.78,-3.18 -0.78,-1.44 -2.07,-2.28 -1.29,-0.84 -2.85,-0.84 -1.56,0 -2.85,0.87 -1.26,0.87 -2.04,2.31 -0.78,1.41 -0.78,3.18 z"
     id="path14588" /><path
     d="m 846.84298,154.93699 v -9.18 h 2.04 v 8.82 q 0,2.67 0.9,3.99 0.93,1.32 2.73,1.32 1.2,0 2.31,-0.51 1.14,-0.54 2.01,-1.5 0.87,-0.99 1.32,-2.28 v -9.84 h 2.04 v 13.17 q 0,0.42 0.18,0.63 0.18,0.18 0.54,0.21 v 1.62 q -0.36,0.03 -0.57,0.03 -0.21,0.03 -0.39,0.03 -0.6,-0.06 -1.05,-0.48 -0.42,-0.42 -0.45,-1.02 l -0.06,-2.1 q -1.02,1.8 -2.79,2.82 -1.74,1.02 -3.78,1.02 -2.46,0 -3.72,-1.71 -1.26,-1.71 -1.26,-5.04 z"
     style="font-size:30px;font-family:Raleway-Regular, Raleway, sans-serif;fill:#4e7592"
     id="path14590" /><path
     d="m 869.94298,161.68699 q -1.92,0 -3.57,-0.63 -1.65,-0.63 -2.85,-1.92 l 0.84,-1.44 q 1.32,1.23 2.64,1.8 1.35,0.54 2.85,0.54 1.83,0 2.97,-0.72 1.14,-0.75 1.14,-2.13 0,-0.93 -0.57,-1.41 -0.54,-0.51 -1.59,-0.81 -1.02,-0.33 -2.46,-0.69 -1.62,-0.45 -2.73,-0.93 -1.08,-0.51 -1.65,-1.26 -0.54,-0.78 -0.54,-2.01 0,-1.53 0.75,-2.52 0.78,-1.02 2.1,-1.53 1.35,-0.54 3,-0.54 1.8,0 3.18,0.57 1.38,0.57 2.25,1.59 l -0.99,1.38 q -0.84,-0.96 -2.01,-1.41 -1.14,-0.48 -2.55,-0.48 -0.96,0 -1.83,0.27 -0.87,0.24 -1.44,0.84 -0.54,0.57 -0.54,1.59 0,0.84 0.42,1.32 0.42,0.45 1.26,0.78 0.84,0.3 2.07,0.66 1.77,0.48 3.09,0.99 1.32,0.48 2.04,1.26 0.72,0.78 0.72,2.19 0,2.19 -1.65,3.42 -1.65,1.23 -4.35,1.23 z"
     style="font-size:30px;font-family:Raleway-Regular, Raleway, sans-serif;fill:#4e7592"
     id="path14592" /><path
     d="m 899.82295,144.07699 q -0.45,-0.51 -1.05,-0.9 -0.6,-0.42 -1.35,-0.72 -0.75,-0.3 -1.62,-0.48 -0.84,-0.18 -1.8,-0.18 -2.79,0 -4.11,1.08 -1.29,1.05 -1.29,2.88 0,1.26 0.6,1.98 0.63,0.72 1.95,1.17 1.32,0.45 3.36,0.93 2.28,0.48 3.93,1.14 1.65,0.66 2.55,1.8 0.9,1.11 0.9,3.03 0,1.47 -0.57,2.55 -0.57,1.08 -1.59,1.8 -1.02,0.72 -2.43,1.08 -1.41,0.33 -3.09,0.33 -1.65,0 -3.18,-0.33 -1.5,-0.36 -2.85,-1.02 -1.35,-0.69 -2.52,-1.74 l 1.05,-1.71 q 0.57,0.6 1.35,1.14 0.81,0.51 1.77,0.93 0.99,0.42 2.1,0.66 1.14,0.21 2.34,0.21 2.55,0 3.96,-0.93 1.44,-0.93 1.44,-2.76 0,-1.32 -0.72,-2.1 -0.72,-0.81 -2.16,-1.32 -1.44,-0.51 -3.54,-0.99 -2.22,-0.51 -3.75,-1.14 -1.53,-0.63 -2.31,-1.65 -0.75,-1.05 -0.75,-2.76 0,-1.98 0.96,-3.33 0.99,-1.38 2.7,-2.07 1.71,-0.72 3.93,-0.72 1.41,0 2.61,0.3 1.23,0.27 2.25,0.81 1.05,0.54 1.95,1.35 z"
     style="font-size:30px;font-family:Raleway-Regular, Raleway, sans-serif;fill:#4e7592"
     id="path14594" /><path
     d="m 912.60303,160.63699 q -0.24,0.09 -0.75,0.33 -0.51,0.24 -1.23,0.42 -0.72,0.18 -1.56,0.18 -0.87,0 -1.65,-0.33 -0.75,-0.33 -1.2,-0.99 -0.45,-0.69 -0.45,-1.68 v -11.19 h -2.16 v -1.62 h 2.16 v -5.28 h 2.04 v 5.28 h 3.6 v 1.62 h -3.6 v 10.62 q 0.06,0.84 0.6,1.26 0.57,0.42 1.29,0.42 0.84,0 1.53,-0.27 0.69,-0.3 0.84,-0.42 z"
     id="path14596" /><path
     d="m 913.89302,156.88699 q 0,-1.47 0.84,-2.52 0.84,-1.08 2.31,-1.65 1.5,-0.6 3.45,-0.6 1.14,0 2.37,0.18 1.23,0.18 2.19,0.54 v -1.32 q 0,-1.98 -1.17,-3.15 -1.17,-1.17 -3.24,-1.17 -1.26,0 -2.49,0.48 -1.2,0.45 -2.52,1.35 l -0.78,-1.44 q 1.53,-1.05 3,-1.56 1.47,-0.54 3,-0.54 2.88,0 4.56,1.65 1.68,1.65 1.68,4.56 v 7.23 q 0,0.42 0.18,0.63 0.18,0.18 0.57,0.21 v 1.62 q -0.33,0.03 -0.57,0.06 -0.24,0.03 -0.36,0 -0.75,-0.03 -1.14,-0.48 -0.39,-0.45 -0.42,-0.96 l -0.03,-1.14 q -1.05,1.35 -2.73,2.1 -1.68,0.72 -3.42,0.72 -1.5,0 -2.73,-0.63 -1.2,-0.66 -1.89,-1.74 -0.66,-1.11 -0.66,-2.43 z m 10.47,1.2 q 0.33,-0.42 0.51,-0.81 0.18,-0.39 0.18,-0.69 v -2.28 q -1.02,-0.39 -2.13,-0.6 -1.08,-0.21 -2.19,-0.21 -2.19,0 -3.54,0.87 -1.35,0.87 -1.35,2.37 0,0.87 0.45,1.65 0.45,0.75 1.32,1.26 0.87,0.48 2.04,0.48 1.47,0 2.73,-0.57 1.29,-0.57 1.98,-1.47 z"
     id="path14598" /><path
     d="m 938.883,160.63699 q -0.24,0.09 -0.75,0.33 -0.51,0.24 -1.23,0.42 -0.72,0.18 -1.56,0.18 -0.87,0 -1.65,-0.33 -0.75,-0.33 -1.2,-0.99 -0.45,-0.69 -0.45,-1.68 v -11.19 h -2.16 v -1.62 h 2.16 v -5.28 h 2.04 v 5.28 h 3.6 v 1.62 h -3.6 v 10.62 q 0.06,0.84 0.6,1.26 0.57,0.42 1.29,0.42 0.84,0 1.53,-0.27 0.69,-0.3 0.84,-0.42 z"
     id="path14600" /><path
     d="m 947.79303,161.68699 q -1.68,0 -3.12,-0.63 -1.44,-0.66 -2.49,-1.77 -1.05,-1.14 -1.65,-2.61 -0.57,-1.47 -0.57,-3.15 0,-2.19 0.99,-4.02 1.02,-1.83 2.79,-2.91 1.77,-1.11 4.02,-1.11 2.31,0 4.02,1.11 1.74,1.11 2.73,2.94 0.99,1.8 0.99,3.96 0,0.24 0,0.48 0,0.21 -0.03,0.33 h -13.38 q 0.15,1.68 0.93,3 0.81,1.29 2.07,2.07 1.29,0.75 2.79,0.75 1.53,0 2.88,-0.78 1.38,-0.78 1.92,-2.04 l 1.77,0.48 q -0.48,1.11 -1.47,2.01 -0.99,0.9 -2.34,1.41 -1.32,0.48 -2.85,0.48 z m -5.76,-8.85 h 11.55 q -0.12,-1.71 -0.93,-3 -0.78,-1.29 -2.07,-2.01 -1.26,-0.75 -2.79,-0.75 -1.53,0 -2.79,0.75 -1.26,0.72 -2.07,2.04 -0.78,1.29 -0.9,2.97 z"
     id="path14602" /><path
     d="m 982.743,155.89699 q 0,1.59 -0.81,2.85 -0.81,1.23 -2.19,1.95 -1.35,0.69 -2.97,0.69 h -10.05 v -21.3 h 10.26 q 1.5,0 2.58,0.81 1.11,0.78 1.68,2.04 0.6,1.23 0.6,2.58 0,1.59 -0.81,2.94 -0.81,1.35 -2.25,2.01 1.83,0.54 2.88,2.01 1.08,1.47 1.08,3.42 z m -2.1,-0.36 q 0,-1.08 -0.48,-1.98 -0.48,-0.93 -1.32,-1.5 -0.81,-0.57 -1.86,-0.57 h -8.16 v 8.07 h 7.95 q 1.08,0 1.95,-0.57 0.87,-0.57 1.38,-1.47 0.54,-0.93 0.54,-1.98 z m -11.82,-13.62 v 7.86 h 7.32 q 1.05,0 1.86,-0.54 0.81,-0.57 1.29,-1.47 0.48,-0.9 0.48,-1.92 0,-1.08 -0.45,-1.95 -0.45,-0.9 -1.23,-1.44 -0.78,-0.54 -1.77,-0.54 z"
     style="font-size:30px;font-family:Raleway-Regular, Raleway, sans-serif;fill:#4e7592"
     id="path14604" /><path
     d="m 985.02296,156.88699 q 0,-1.47 0.84,-2.52 0.84,-1.08 2.31,-1.65 1.5,-0.6 3.45,-0.6 1.14,0 2.37,0.18 1.23,0.18 2.19,0.54 v -1.32 q 0,-1.98 -1.17,-3.15 -1.17,-1.17 -3.24,-1.17 -1.26,0 -2.49,0.48 -1.2,0.45 -2.52,1.35 l -0.78,-1.44 q 1.53,-1.05 3,-1.56 1.47,-0.54 3,-0.54 2.88,0 4.56,1.65 1.68,1.65 1.68,4.56 v 7.23 q 0,0.42 0.18,0.63 0.18,0.18 0.57,0.21 v 1.62 q -0.33,0.03 -0.57,0.06 -0.24,0.03 -0.36,0 -0.75,-0.03 -1.14,-0.48 -0.39,-0.45 -0.42,-0.96 l -0.03,-1.14 q -1.05,1.35 -2.73,2.1 -1.68,0.72 -3.42,0.72 -1.5,0 -2.73,-0.63 -1.2,-0.66 -1.89,-1.74 -0.66,-1.11 -0.66,-2.43 z m 10.47,1.2 q 0.33,-0.42 0.51,-0.81 0.18,-0.39 0.18,-0.69 v -2.28 q -1.02,-0.39 -2.13,-0.6 -1.08,-0.21 -2.19,-0.21 -2.19,0 -3.54,0.87 -1.35,0.87 -1.35,2.37 0,0.87 0.45,1.65 0.45,0.75 1.32,1.26 0.87,0.48 2.04,0.48 1.47,0 2.73,-0.57 1.29,-0.57 1.98,-1.47 z"
     style="font-size:30px;font-family:Raleway-Regular, Raleway, sans-serif;fill:#4e7592"
     id="path14606" /><path
     d="m 1007.7629,161.68699 q -1.92,0 -3.57,-0.63 -1.65,-0.63 -2.85,-1.92 l 0.84,-1.44 q 1.32,1.23 2.64,1.8 1.35,0.54 2.85,0.54 1.83,0 2.97,-0.72 1.14,-0.75 1.14,-2.13 0,-0.93 -0.57,-1.41 -0.54,-0.51 -1.59,-0.81 -1.02,-0.33 -2.46,-0.69 -1.62,-0.45 -2.73,-0.93 -1.08,-0.51 -1.65,-1.26 -0.54,-0.78 -0.54,-2.01 0,-1.53 0.75,-2.52 0.78,-1.02 2.1,-1.53 1.35,-0.54 3,-0.54 1.8,0 3.18,0.57 1.38,0.57 2.25,1.59 l -0.99,1.38 q -0.84,-0.96 -2.01,-1.41 -1.14,-0.48 -2.55,-0.48 -0.96,0 -1.83,0.27 -0.87,0.24 -1.44,0.84 -0.54,0.57 -0.54,1.59 0,0.84 0.42,1.32 0.42,0.45 1.26,0.78 0.84,0.3 2.07,0.66 1.77,0.48 3.09,0.99 1.32,0.48 2.04,1.26 0.72,0.78 0.72,2.19 0,2.19 -1.65,3.42 -1.65,1.23 -4.35,1.23 z"
     style="font-size:30px;font-family:Raleway-Regular, Raleway, sans-serif;fill:#4e7592"
     id="path14608" /><path
     d="m 1023.8729,161.68699 q -1.68,0 -3.12,-0.63 -1.44,-0.66 -2.49,-1.77 -1.05,-1.14 -1.65,-2.61 -0.57,-1.47 -0.57,-3.15 0,-2.19 0.99,-4.02 1.02,-1.83 2.79,-2.91 1.77,-1.11 4.02,-1.11 2.31,0 4.02,1.11 1.74,1.11 2.73,2.94 0.99,1.8 0.99,3.96 0,0.24 0,0.48 0,0.21 -0.03,0.33 h -13.38 q 0.15,1.68 0.93,3 0.81,1.29 2.07,2.07 1.29,0.75 2.79,0.75 1.53,0 2.88,-0.78 1.38,-0.78 1.92,-2.04 l 1.77,0.48 q -0.48,1.11 -1.47,2.01 -0.99,0.9 -2.34,1.41 -1.32,0.48 -2.85,0.48 z m -5.76,-8.85 h 11.55 q -0.12,-1.71 -0.93,-3 -0.78,-1.29 -2.07,-2.01 -1.26,-0.75 -2.79,-0.75 -1.53,0 -2.79,0.75 -1.26,0.72 -2.07,2.04 -0.78,1.29 -0.9,2.97 z"
     style="font-size:30px;font-family:Raleway-Regular, Raleway, sans-serif;fill:#4e7592"
     id="path14610" /><path
     d="m 1033.6829,153.61699 q 0,-2.22 0.9,-4.05 0.93,-1.86 2.55,-2.97 1.62,-1.11 3.69,-1.11 1.95,0 3.48,1.05 1.56,1.02 2.43,2.49 v -9.54 h 2.04 v 19.44 q 0,0.42 0.18,0.63 0.18,0.18 0.54,0.21 v 1.62 q -0.6,0.09 -0.93,0.06 -0.63,-0.03 -1.11,-0.51 -0.48,-0.48 -0.48,-1.05 v -1.53 q -0.93,1.53 -2.52,2.43 -1.59,0.9 -3.3,0.9 -1.62,0 -3,-0.66 -1.35,-0.66 -2.37,-1.8 -0.99,-1.14 -1.56,-2.58 -0.54,-1.47 -0.54,-3.03 z m 13.05,2.4 v -4.83 q -0.39,-1.08 -1.26,-1.95 -0.87,-0.9 -1.98,-1.41 -1.08,-0.54 -2.16,-0.54 -1.26,0 -2.28,0.54 -1.02,0.51 -1.77,1.41 -0.72,0.9 -1.11,2.04 -0.39,1.14 -0.39,2.34 0,1.26 0.42,2.4 0.45,1.14 1.26,2.04 0.81,0.87 1.86,1.35 1.05,0.48 2.28,0.48 0.78,0 1.62,-0.3 0.84,-0.3 1.59,-0.81 0.78,-0.54 1.29,-1.26 0.51,-0.72 0.63,-1.5 z"
     style="font-size:30px;font-family:Raleway-Regular, Raleway, sans-serif;fill:#4e7592"
     id="path14612" /><path
     d="m 1080.3329,161.38699 v -17.34 l -7.71,13.47 h -1.32 l -7.74,-13.47 v 17.34 h -2.1 v -21.3 h 2.16 l 8.31,14.58 8.37,-14.58 h 2.13 v 21.3 z"
     style="font-size:30px;font-family:Raleway-Regular, Raleway, sans-serif;fill:#4e7592"
     id="path14614" /><path
     d="m 1094.01,161.68699 q -1.68,0 -3.12,-0.63 -1.44,-0.66 -2.49,-1.77 -1.05,-1.14 -1.65,-2.61 -0.57,-1.47 -0.57,-3.15 0,-2.19 0.99,-4.02 1.02,-1.83 2.79,-2.91 1.77,-1.11 4.02,-1.11 2.31,0 4.02,1.11 1.74,1.11 2.73,2.94 0.99,1.8 0.99,3.96 0,0.24 0,0.48 0,0.21 -0.03,0.33 h -13.38 q 0.15,1.68 0.93,3 0.81,1.29 2.07,2.07 1.29,0.75 2.79,0.75 1.53,0 2.88,-0.78 1.38,-0.78 1.92,-2.04 l 1.77,0.48 q -0.48,1.11 -1.47,2.01 -0.99,0.9 -2.34,1.41 -1.32,0.48 -2.85,0.48 z m -5.76,-8.85 h 11.55 q -0.12,-1.71 -0.93,-3 -0.78,-1.29 -2.07,-2.01 -1.26,-0.75 -2.79,-0.75 -1.53,0 -2.79,0.75 -1.26,0.72 -2.07,2.04 -0.78,1.29 -0.9,2.97 z"
     id="path14616" /><path
     d="m 1112.25,160.63699 q -0.24,0.09 -0.75,0.33 -0.51,0.24 -1.23,0.42 -0.72,0.18 -1.56,0.18 -0.87,0 -1.65,-0.33 -0.75,-0.33 -1.2,-0.99 -0.45,-0.69 -0.45,-1.68 v -11.19 h -2.16 v -1.62 h 2.16 v -5.28 h 2.04 v 5.28 h 3.6 v 1.62 h -3.6 v 10.62 q 0.06,0.84 0.6,1.26 0.57,0.42 1.29,0.42 0.84,0 1.53,-0.27 0.69,-0.3 0.84,-0.42 z"
     id="path14618" /><path
     d="m 1127.94,161.38699 h -2.04 v -8.73 q 0,-2.64 -0.93,-3.96 -0.93,-1.35 -2.67,-1.35 -1.14,0 -2.28,0.6 -1.11,0.57 -1.98,1.59 -0.84,0.99 -1.2,2.28 v 9.57 h -2.04 v -21.9 h 2.04 v 9.81 q 0.93,-1.74 2.58,-2.76 1.68,-1.05 3.57,-1.05 1.35,0 2.28,0.48 0.96,0.48 1.53,1.41 0.6,0.9 0.87,2.13 0.27,1.2 0.27,2.73 z"
     style="font-size:30px;font-family:Raleway-Regular, Raleway, sans-serif;fill:#4e7592"
     id="path14620" /><path
     d="m 1138.9499,161.68699 q -1.68,0 -3.12,-0.63 -1.41,-0.66 -2.46,-1.77 -1.02,-1.14 -1.59,-2.58 -0.57,-1.47 -0.57,-3.09 0,-1.68 0.57,-3.12 0.57,-1.47 1.62,-2.58 1.05,-1.14 2.46,-1.77 1.44,-0.66 3.12,-0.66 1.68,0 3.09,0.66 1.41,0.63 2.46,1.77 1.05,1.11 1.62,2.58 0.57,1.44 0.57,3.12 0,1.62 -0.57,3.09 -0.57,1.44 -1.62,2.58 -1.02,1.11 -2.46,1.77 -1.41,0.63 -3.12,0.63 z m -5.67,-8.04 q 0,1.74 0.75,3.18 0.78,1.41 2.07,2.25 1.29,0.81 2.85,0.81 1.56,0 2.85,-0.84 1.29,-0.84 2.07,-2.28 0.78,-1.47 0.78,-3.18 0,-1.74 -0.78,-3.18 -0.78,-1.44 -2.07,-2.28 -1.29,-0.84 -2.85,-0.84 -1.56,0 -2.85,0.87 -1.26,0.87 -2.04,2.31 -0.78,1.41 -0.78,3.18 z"
     style="font-size:30px;font-family:Raleway-Regular, Raleway, sans-serif;fill:#4e7592"
     id="path14622" /><path
     d="m 1149.0899,153.61699 q 0,-2.22 0.9,-4.05 0.93,-1.86 2.55,-2.97 1.62,-1.11 3.69,-1.11 1.95,0 3.48,1.05 1.56,1.02 2.43,2.49 v -9.54 h 2.04 v 19.44 q 0,0.42 0.18,0.63 0.18,0.18 0.54,0.21 v 1.62 q -0.6,0.09 -0.93,0.06 -0.63,-0.03 -1.11,-0.51 -0.48,-0.48 -0.48,-1.05 v -1.53 q -0.93,1.53 -2.52,2.43 -1.59,0.9 -3.3,0.9 -1.62,0 -3,-0.66 -1.35,-0.66 -2.37,-1.8 -0.99,-1.14 -1.56,-2.58 -0.54,-1.47 -0.54,-3.03 z m 13.05,2.4 v -4.83 q -0.39,-1.08 -1.26,-1.95 -0.87,-0.9 -1.98,-1.41 -1.08,-0.54 -2.16,-0.54 -1.26,0 -2.28,0.54 -1.02,0.51 -1.77,1.41 -0.72,0.9 -1.11,2.04 -0.39,1.14 -0.39,2.34 0,1.26 0.42,2.4 0.45,1.14 1.26,2.04 0.81,0.87 1.86,1.35 1.05,0.48 2.28,0.48 0.78,0 1.62,-0.3 0.84,-0.3 1.59,-0.81 0.78,-0.54 1.29,-1.26 0.51,-0.72 0.63,-1.5 z"
     style="font-size:30px;font-family:Raleway-Regular, Raleway, sans-serif;fill:#4e7592"
     id="path14624" /><path
     d="m 1173.9299,161.68699 q -1.92,0 -3.57,-0.63 -1.65,-0.63 -2.85,-1.92 l 0.84,-1.44 q 1.32,1.23 2.64,1.8 1.35,0.54 2.85,0.54 1.83,0 2.97,-0.72 1.14,-0.75 1.14,-2.13 0,-0.93 -0.57,-1.41 -0.54,-0.51 -1.59,-0.81 -1.02,-0.33 -2.46,-0.69 -1.62,-0.45 -2.73,-0.93 -1.08,-0.51 -1.65,-1.26 -0.54,-0.78 -0.54,-2.01 0,-1.53 0.75,-2.52 0.78,-1.02 2.1,-1.53 1.35,-0.54 3,-0.54 1.8,0 3.18,0.57 1.38,0.57 2.25,1.59 l -0.99,1.38 q -0.84,-0.96 -2.01,-1.41 -1.14,-0.48 -2.55,-0.48 -0.96,0 -1.83,0.27 -0.87,0.24 -1.44,0.84 -0.54,0.57 -0.54,1.59 0,0.84 0.42,1.32 0.42,0.45 1.26,0.78 0.84,0.3 2.07,0.66 1.77,0.48 3.09,0.99 1.32,0.48 2.04,1.26 0.72,0.78 0.72,2.19 0,2.19 -1.65,3.42 -1.65,1.23 -4.35,1.23 z"
     style="font-size:30px;font-family:Raleway-Regular, Raleway, sans-serif;fill:#4e7592"
     id="path14626" /></g>
</svg>
