<?xml version="1.0" encoding="UTF-8" standalone="no"?>
<svg
   width="100%"
   height="100%"
   viewBox="0 0 177 57"
   version="1.1"
   xml:space="preserve"
   style="fill-rule:evenodd;clip-rule:evenodd;stroke-linejoin:round;stroke-miterlimit:2;"
   id="svg18"
   sodipodi:docname="rect.svg"
   inkscape:version="1.1 (c4e8f9ed74, 2021-05-24)"
   xmlns:inkscape="http://www.inkscape.org/namespaces/inkscape"
   xmlns:sodipodi="http://sodipodi.sourceforge.net/DTD/sodipodi-0.dtd"
   xmlns="http://www.w3.org/2000/svg"
   xmlns:svg="http://www.w3.org/2000/svg"><sodipodi:namedview
   id="namedview1605"
   pagecolor="#505050"
   bordercolor="#ffffff"
   borderopacity="1"
   inkscape:pageshadow="0"
   inkscape:pageopacity="0"
   inkscape:pagecheckerboard="1"
   showgrid="false"
   inkscape:zoom="7.0338983"
   inkscape:cx="88.571084"
   inkscape:cy="28.433735"
   inkscape:window-width="1041"
   inkscape:window-height="1035"
   inkscape:window-x="875"
   inkscape:window-y="163"
   inkscape:window-maximized="1"
   inkscape:current-layer="svg18" /><defs
   id="defs22" />
    
    <g
   id="g1616"><g
     transform="matrix(0.69,0,0,0.69,112.152,-6.0093)"
     id="g4">
        <path
   d="M30,10L30,43.333L56.667,43.333L56.667,70L90,70L90,10L30,10Z"
   style="fill:rgb(130,169,200);fill-rule:nonzero;"
   id="path2" />
    </g><g
     transform="matrix(0.69,0,0,0.69,112.152,-6.0093)"
     id="g8">
        <rect
   x="10"
   y="50"
   width="40"
   height="40"
   style="fill:rgb(232,155,38);"
   id="rect6" />
    </g></g>
    <g
   transform="matrix(4.82118,0,0,4.82118,-1468.26,-1265.06)"
   id="g12">
        <g
   aria-label="ABZ"
   id="text10"
   style="font-size:12px;font-family:ArialMT, Arial, sans-serif;word-spacing:0px;fill:#4e7592"><g
     id="g1610"><path
       d="m 311.9689,271.17001 -0.94336,-2.41406 h -3.76172 l -0.94921,2.41406 h -1.16016 l 3.36914,-8.25586 h 1.27148 l 3.31641,8.25586 z m -2.82422,-7.41211 -0.0527,0.16407 q -0.14648,0.48632 -0.43359,1.24804 l -1.05469,2.71289 h 3.08789 l -1.06055,-2.72461 q -0.16406,-0.40429 -0.32812,-0.91406 z"
       style="font-size:12px;font-family:ArialMT, Arial, sans-serif;word-spacing:0px;fill:#4e7592"
       id="path945" /><path
       d="m 320.50601,268.84384 q 0,1.10156 -0.80273,1.7168 -0.80274,0.60937 -2.23242,0.60937 h -3.35157 v -8.25586 h 3 q 2.90625,0 2.90625,2.00391 0,0.73242 -0.41015,1.23047 -0.41016,0.49805 -1.16016,0.66797 0.98438,0.11719 1.51758,0.66211 0.5332,0.53906 0.5332,1.36523 z m -1.60547,-3.79101 q 0,-0.66797 -0.45703,-0.95508 -0.45703,-0.28711 -1.32422,-0.28711 h -1.88086 v 2.61328 h 1.88086 q 0.89649,0 1.33594,-0.33398 0.44531,-0.33985 0.44531,-1.03711 z m 0.47461,3.70312 q 0,-1.45898 -2.05078,-1.45898 h -2.08594 v 2.97656 h 2.17383 q 1.02539,0 1.49414,-0.38086 0.46875,-0.38086 0.46875,-1.13672 z"
       style="font-size:12px;font-family:ArialMT, Arial, sans-serif;word-spacing:0px;fill:#4e7592"
       id="path947" /><path
       d="m 328.0939,271.17001 h -6.57422 v -0.83789 l 5.02735,-6.5039 h -4.59961 v -0.91407 h 5.87109 v 0.81446 l -5.02734,6.52734 h 5.30273 z"
       style="font-size:12px;font-family:ArialMT, Arial, sans-serif;word-spacing:0px;fill:#4e7592"
       id="path949" /></g></g>
    </g>
    
</svg>
